<svg xmlns="http://www.w3.org/2000/svg" viewBox="0 0 512 512" role="img" aria-labelledby="title desc">
  <title id="title">Schematics Studio logo</title>
  <desc id="desc">Rounded square containing a stylised S shaped circuit trace.</desc>
  <defs>
    <linearGradient id="bg" x1="0%" y1="0%" x2="100%" y2="100%">
      <stop offset="0%" stop-color="#1e3a8a" />
      <stop offset="50%" stop-color="#2563eb" />
      <stop offset="100%" stop-color="#0ea5e9" />
    </linearGradient>
    <linearGradient id="trace" x1="20%" y1="15%" x2="80%" y2="85%">
      <stop offset="0%" stop-color="#f8fafc" stop-opacity="0.95" />
      <stop offset="100%" stop-color="#e0f2fe" stop-opacity="0.85" />
    </linearGradient>
    <filter id="shadow" x="-20%" y="-20%" width="140%" height="140%" color-interpolation-filters="sRGB">
      <feDropShadow dx="0" dy="18" stdDeviation="22" flood-color="#020617" flood-opacity="0.45" />
    </filter>
  </defs>
  <rect x="32" y="32" width="448" height="448" rx="112" fill="url(#bg)" filter="url(#shadow)" />
  <path
    d="M148 168c0-40.8 29.2-72 76.3-72H320c47.1 0 75.7 31.2 75.7 72 0 38.2-26.5 64.2-64.2 70.8l-98.6 17.2c-23.6 4.2-34.9 15.3-34.9 34.6 0 21.6 16.2 34.8 44.6 34.8h52.2c28.7 0 44.6-13.4 44.6-32.8 0-11.9 9.7-21.2 21.6-21.2s21.6 9.3 21.6 21.2c0 44.2-35.9 75.6-88.6 75.6h-57.8c-57 0-92.7-30.8-92.7-81.6 0-43 27.3-74 72.8-82l99.4-17.2c23-4 34.5-15.6 34.5-35.4 0-20.6-15.8-33.8-44.2-33.8h-95.7c-26.7 0-40.5 13.2-40.5 34.8 0 11.7-9.7 21.2-21.6 21.2S148 179.7 148 168Z"
    fill="url(#trace)"
    stroke="#bae6fd"
    stroke-width="12"
    stroke-linejoin="round"
  />
  <circle cx="172" cy="168" r="18" fill="#bae6fd" />
  <circle cx="340" cy="344" r="18" fill="#bae6fd" />
</svg>
